<svg width="75" height="76" viewBox="0 0 75 76" fill="none" xmlns="http://www.w3.org/2000/svg">
<g clip-path="url(#clip0_512_1746)">
<path d="M15.9952 65.4419C16.0715 63.6443 16.8331 62.245 18.1617 61.4611C18.8696 61.0229 19.7052 60.7429 20.6407 60.6305C21.6494 60.4897 22.7417 60.5016 23.8924 60.6659C24.5593 60.7501 24.096 60.2868 23.1508 59.7494C19.8162 57.924 16.388 56.0166 12.9581 54.2182C12.979 53.7851 13.0268 53.3661 13.1013 52.963L13.302 51.7187L13.6157 50.5465C13.7219 50.1575 13.8057 49.7517 13.9567 49.3959C14.2442 48.6695 14.4742 47.9031 14.8513 47.2431L15.3541 46.2135L15.9516 45.2551C17.5602 42.7199 19.6597 40.6204 22.1949 39.0118C24.7551 37.432 27.6388 36.2481 30.7995 35.4794C33.9574 34.7164 37.2697 34.1991 40.7177 33.9304C44.4787 33.6127 48.3491 33.4976 52.1961 33.3475C54.1172 33.27 56.0353 33.1953 57.9359 33.0798C59.8364 32.9643 61.7252 32.8313 63.4978 32.512C65.284 32.2261 66.889 31.6479 68.2698 30.7931C69.6571 29.97 70.594 28.6472 70.9924 26.9489C71.1641 26.092 71.1767 25.1425 71.0299 24.1314C70.8996 23.1309 70.6054 22.0761 70.1578 21.0042C69.2723 18.8952 67.7024 16.6902 65.6875 15.2813C65.242 14.9465 64.9301 16.0388 65.2616 16.312C65.4458 16.4481 65.6255 16.5946 65.7989 16.7502C65.9598 16.9111 66.1207 17.0721 66.3011 17.2234C66.4815 17.3746 66.6026 17.5656 66.7626 17.7373C66.915 17.9143 67.0586 18.0968 67.1921 18.2832C67.7612 19.0632 68.2221 19.8774 68.5532 20.6873C69.2681 22.4929 69.4963 24.2162 69.2113 25.6574C69.1436 26.0103 69.0448 26.3438 68.9157 26.6553L68.6919 27.0839C68.6202 27.2336 68.4998 27.3638 68.4047 27.5076C67.9844 28.0578 67.4819 28.531 66.9042 28.9204C65.6316 29.6978 64.1582 30.2267 62.522 30.4934C60.7875 30.7874 58.99 30.9735 57.1362 31.0508C49.6158 31.5189 41.6875 31.4682 34.2463 32.5691C31.2644 32.9916 28.4271 33.6584 25.754 34.565C25.0908 34.799 24.4431 35.0663 23.7867 35.313L21.9065 36.2178L20.1335 37.2592L18.4952 38.4586C16.3716 40.14 14.6403 42.2318 13.3419 44.6848C12.0156 47.1583 11.2591 50.0682 11.101 53.3051C8.72912 52.0817 6.35259 50.9796 3.98395 50.0045C3.80772 49.929 3.63854 49.9042 3.49914 49.9334C3.17477 49.3701 2.12277 48.9882 2.30609 49.5852C2.50477 50.2305 2.73595 50.8818 2.99857 51.5362C3.29692 52.2133 3.60979 52.8758 3.97141 53.5579C4.31201 54.2249 4.69029 54.8893 5.10381 55.5468C5.53548 56.2174 5.9895 56.8754 6.45321 57.5139C6.91252 58.1585 7.40573 58.7899 7.92902 59.4034C8.46374 60.0197 9.01005 60.6243 9.56414 61.2017C10.1117 61.7794 10.6823 62.3362 11.2721 62.8688C11.8748 63.4074 12.4822 63.9216 13.0818 64.4047L13.1337 64.5382C13.213 64.7515 13.4897 64.8942 13.7643 64.9415L14.4009 65.4266C14.9224 65.7733 15.9669 65.8506 15.9952 65.4419ZM9.24022 55.995C9.3132 56.059 9.39025 56.1164 9.46936 56.1658L9.74218 56.3221L9.35544 56.1626L9.24022 55.995ZM8.87796 55.4696C8.42204 54.833 7.96413 54.1887 7.50333 53.5473C7.96038 53.812 8.41645 54.0583 8.87249 54.3046C8.75615 54.5087 9.01891 54.9288 9.67357 55.2105L9.97263 55.3406L9.21717 55.2669C9.12738 55.2505 9.04785 55.2607 8.98781 55.2966C8.92776 55.3325 8.88967 55.3925 8.87796 55.4696ZM21.0622 59.3506L20.885 59.3425C20.817 59.2829 20.7447 59.2302 20.6706 59.1863C20.4991 59.0847 20.3295 58.9909 20.1551 58.8922L21.0622 59.3506ZM19.8583 59.3645L19.7036 59.3729C19.7261 59.365 19.7422 59.3489 19.7501 59.3263L19.8583 59.3645ZM19.468 59.3939C18.6803 59.4749 17.9441 59.646 17.2696 59.9048C17.2145 59.8539 17.1562 59.8074 17.096 59.7662C16.7003 59.5279 16.3067 59.2973 15.9159 59.0638C16.0557 58.924 15.8779 58.6239 15.3312 58.3219L14.193 57.6848C15.7375 58.036 17.3249 58.5586 18.9266 59.2428C19.1126 59.3229 19.2956 59.374 19.468 59.3939ZM16.6717 60.2393C16.4482 60.3653 16.2393 60.506 16.045 60.6613C15.2879 60.2771 14.5239 59.8802 13.759 59.4649C13.9789 59.5508 14.1906 59.5866 14.3763 59.5694L16.6717 60.2393ZM15.1691 61.5567C14.7907 62.0856 14.5075 62.6961 14.3254 63.3758C14.2129 63.2813 14.1078 63.1761 14.0132 63.0637C14.3032 63.0565 14.4753 62.943 14.2694 62.6905L13.9443 62.284C14.0954 62.1153 14.3045 62.006 14.5568 61.9641C14.8903 61.8256 14.6015 61.4902 14.1679 61.2605L15.1691 61.5567ZM12.3696 62.2883C11.519 61.48 10.6989 60.6384 9.9143 59.7688C9.15147 58.8875 8.42832 57.9815 7.74957 57.0564C7.04757 56.1124 6.40171 55.1471 5.81805 54.1693C5.2016 53.1718 4.63819 52.1646 4.1315 51.1543C4.1315 51.1543 4.17053 51.1933 4.2124 51.2002L5.30359 51.7087C5.25638 51.7402 5.23177 51.795 5.23388 51.864C5.23598 51.933 5.26464 52.012 5.31511 52.0874C6.27003 53.4735 7.25516 54.8489 8.12901 56.1015C8.11578 56.2805 8.28377 56.5418 8.61617 56.7751L9.03688 57.3299C8.97494 57.4893 9.09907 57.7359 9.49082 57.9586C9.98576 58.6342 10.4485 59.2834 10.8918 59.9131C10.8918 59.9131 10.8713 59.9335 10.8626 59.9422C11.0976 60.7062 11.6137 61.4962 12.3002 62.143L12.3696 62.2883ZM11.0947 54.4233L11.0923 54.6307C10.032 54.1144 8.9736 53.5443 7.92243 52.9233L11.0947 54.4233ZM12.9079 55.2926L13.0404 55.3552C12.9891 55.3515 12.9426 55.3583 12.9032 55.3753L12.9079 55.2926Z" fill="#7DFFAF"/>
</g>
<defs>
<clipPath id="clip0_512_1746">
<rect width="72.3207" height="33.7072" fill="white" transform="matrix(-0.707107 0.707107 0.707107 0.707107 51.1384 0.469971)"/>
</clipPath>
</defs>
</svg>
